<svg id="Capa_1" enable-background="new 0 0 512 512" height="512" viewBox="0 0 512 512" width="512" xmlns="http://www.w3.org/2000/svg"><g><g><path d="m225 512c-87.857 0-118.048-31.018-161.455-67.134-17.754-14.751-40.313-22.866-63.545-22.866v-30c23.232 0 45.791-8.115 63.545-22.852 18.11-15.075 46.984-60.46 84.053-75.322l.029-.015c25.84-10.342 54.902-6.46 77.373 9.609 22.471-16.084 51.563-19.951 77.373-9.609 37.337 14.973 65.851 60.195 84.082 75.322 17.754 14.752 40.313 22.867 63.545 22.867v30c-23.232 0-45.791 8.115-63.545 22.852-47.208 39.462-75.711 67.148-161.455 67.148z" fill="#f36a3d"/></g><path d="m386.455 444.852c17.754-14.737 40.313-22.852 63.545-22.852v-30c-23.232 0-45.791-8.115-63.545-22.866-18.232-15.126-46.745-60.35-84.082-75.322-25.811-10.342-54.902-6.475-77.373 9.609v208.579c85.745 0 114.247-27.686 161.455-67.148z" fill="#ec4c36"/><g><path d="m377 270h-120l27.744-36.973c-27.334-25.503-42.744-60.483-42.744-98.027 0-74.443 60.557-135 135-135s135 60.557 135 135-60.557 135-135 135z" fill="#736b6b"/></g><path d="m512 135c0-74.443-60.557-135-135-135v270c74.443 0 135-60.557 135-135z" fill="#595353"/><g id="Rumors_2_"><g><path d="m302 120h30v30h-30z" fill="#e6d5c3"/></g><g><path d="m362 120h30v30h-30z" fill="#e6d5c3"/></g><g><path d="m422 120h30v30h-30z" fill="#ccb8a3"/></g><path d="m327.305 392c-19.453 0-39.404-5.859-59.326-17.417-28.828-16.699-57.129-16.699-85.957 0-32.727 18.986-59.005 16.997-62.022 17.417l2.695 30c19.453 0 39.404 5.859 59.326 17.417 28.916 16.75 57.01 16.768 85.957 0 19.922-11.558 39.874-17.417 62.022-17.417z" fill="#ec4c36"/></g><path d="m377 120h15v30h-15z" fill="#ccb8a3"/><path d="m267.979 439.417c19.921-11.558 39.873-17.417 62.021-17.417l-2.695-30c-19.453 0-39.404-5.859-59.326-17.417-14.414-8.35-28.696-12.524-42.979-12.524v89.927c14.253-.001 28.51-4.186 42.979-12.569z" fill="#e62e2e"/></g></svg>